# xmcd CD database file
#
# Track frame offsets:
#	150
#	27787
#	53054
#	85093
#	119246
#	143997
#	169631
#	194266
#	221683
#
# Disc length: 3367 seconds
#
# Revision: 1
# Processed by: cddbd v1.5.2PL0 Copyright (c) Steve Scherf et al.
# Submitted via: CDex 1.70beta2
#
DISCID=7e0d2509
DTITLE=Max Frankl Quintett - Sturmvogel
DYEAR=2007
DGENRE=Jazz
TTITLE0=der ausbruch
TTITLE1=eiszeit
TTITLE2=quite frankly
TTITLE3=feya
TTITLE4=niagara
TTITLE5=muthspiel
TTITLE6=wieder alles gut
TTITLE7=sturmvogel
TTITLE8=warten können
EXTD=YEAR: 2007
EXTT0=
EXTT1=
EXTT2=
EXTT3=
EXTT4=
EXTT5=
EXTT6=
EXTT7=
EXTT8=
PLAYORDER=
